<svg width="1072" height="551" viewBox="0 0 1072 551" fill="none" xmlns="http://www.w3.org/2000/svg">
<path d="M1015 234.849C1015 330.023 945.285 410.837 851.14 424.796L266.028 511.554C125.88 532.335 0 423.743 0 282.064V244.31C0 111.473 111.324 5.75812 243.984 12.6199L832.895 43.0807C934.956 48.3598 1015 132.652 1015 234.849Z" fill="#7AA6BF"/>
<path d="M231.829 216.721H192.067V327H175.84V216.721H136.163V203.297H231.829V216.721ZM264.794 327H249.076V235.072H264.794V327ZM247.802 210.688C247.802 208.14 248.566 205.987 250.096 204.231C251.682 202.476 254.004 201.598 257.062 201.598C260.121 201.598 262.443 202.476 264.029 204.231C265.615 205.987 266.408 208.14 266.408 210.688C266.408 213.237 265.615 215.361 264.029 217.061C262.443 218.76 260.121 219.609 257.062 219.609C254.004 219.609 251.682 218.76 250.096 217.061C248.566 215.361 247.802 213.237 247.802 210.688ZM326.9 315.87C332.508 315.87 337.407 314.171 341.599 310.772C345.79 307.374 348.112 303.126 348.565 298.028H363.434C363.15 303.296 361.338 308.309 357.996 313.066C354.654 317.824 350.18 321.619 344.572 324.451C339.021 327.283 333.131 328.699 326.9 328.699C314.383 328.699 304.414 324.536 296.994 316.21C289.631 307.827 285.949 296.386 285.949 281.886V279.252C285.949 270.303 287.592 262.345 290.877 255.378C294.162 248.411 298.863 243.002 304.98 239.15C311.154 235.299 318.433 233.373 326.815 233.373C337.124 233.373 345.677 236.46 352.474 242.634C359.327 248.808 362.98 256.822 363.434 266.678H348.565C348.112 260.73 345.847 255.859 341.769 252.064C337.747 248.213 332.763 246.287 326.815 246.287C318.829 246.287 312.627 249.176 308.209 254.953C303.848 260.674 301.667 268.972 301.667 279.847V282.82C301.667 293.412 303.848 301.568 308.209 307.289C312.57 313.01 318.801 315.87 326.9 315.87ZM406.764 284.435L396.908 294.715V327H381.19V196.5H396.908V275.429L405.319 265.318L433.951 235.072H453.067L417.299 273.475L457.23 327H438.794L406.764 284.435ZM505.743 328.699C493.282 328.699 483.144 324.621 475.327 316.465C467.511 308.252 463.603 297.292 463.603 283.585V280.696C463.603 271.577 465.33 263.449 468.785 256.312C472.297 249.119 477.168 243.512 483.398 239.49C489.686 235.412 496.482 233.373 503.789 233.373C515.74 233.373 525.029 237.31 531.656 245.183C538.283 253.056 541.597 264.327 541.597 278.997V285.539H479.32C479.547 294.602 482.181 301.937 487.222 307.544C492.319 313.095 498.776 315.87 506.593 315.87C512.144 315.87 516.845 314.737 520.696 312.472C524.548 310.206 527.918 307.204 530.807 303.466L540.407 310.942C532.704 322.78 521.149 328.699 505.743 328.699ZM503.789 246.287C497.445 246.287 492.121 248.609 487.816 253.254C483.512 257.842 480.85 264.299 479.83 272.625H525.879V271.436C525.426 263.449 523.273 257.275 519.422 252.914C515.57 248.496 510.359 246.287 503.789 246.287ZM581.188 212.812V235.072H598.351V247.222H581.188V304.23C581.188 307.912 581.953 310.688 583.482 312.557C585.012 314.369 587.617 315.275 591.299 315.275C593.111 315.275 595.604 314.936 598.775 314.256V327C594.641 328.133 590.619 328.699 586.711 328.699C579.688 328.699 574.392 326.575 570.823 322.327C567.255 318.079 565.471 312.047 565.471 304.23V247.222H548.733V235.072H565.471V212.812H581.188ZM714.322 327H697.925V269.821H635.563V327H619.251V203.297H635.563V256.482H697.925V203.297H714.322V327ZM797.584 317.909C791.467 325.103 782.489 328.699 770.651 328.699C760.853 328.699 753.376 325.867 748.222 320.203C743.124 314.482 740.547 306.043 740.49 294.885V235.072H756.208V294.46C756.208 308.394 761.872 315.36 773.2 315.36C785.208 315.36 793.194 310.886 797.159 301.937V235.072H812.877V327H797.924L797.584 317.909ZM914.66 282.056C914.66 296.103 911.432 307.402 904.975 315.955C898.518 324.451 889.852 328.699 878.977 328.699C867.365 328.699 858.388 324.593 852.044 316.38L851.279 327H836.836V196.5H852.554V245.183C858.897 237.31 867.648 233.373 878.807 233.373C889.965 233.373 898.716 237.593 905.06 246.032C911.46 254.472 914.66 266.026 914.66 280.696V282.056ZM898.942 280.271C898.942 269.566 896.875 261.297 892.74 255.463C888.605 249.629 882.658 246.712 874.898 246.712C864.533 246.712 857.085 251.526 852.554 261.155V300.917C857.368 310.546 864.873 315.36 875.068 315.36C882.602 315.36 888.464 312.443 892.655 306.609C896.847 300.775 898.942 291.996 898.942 280.271Z" fill="#F5F4F4"/>
<ellipse cx="265.5" cy="178.298" rx="39.5" ry="43.2981" fill="#5E8EAA"/>
<path fill-rule="evenodd" clip-rule="evenodd" d="M235.27 177.414C241.941 166.995 252.985 160.184 265.48 160.184C277.974 160.184 289.018 166.995 295.689 177.414C289.018 187.834 277.974 194.645 265.48 194.645C252.985 194.645 241.941 187.834 235.27 177.414Z" fill="#E5E5E5"/>
<path d="M267.97 160.221C276.648 160.486 283.49 168.313 283.251 177.704C283.013 187.095 275.784 194.493 267.106 194.228C258.428 193.963 251.586 186.136 251.825 176.745C252.063 167.354 259.292 159.956 267.97 160.221Z" fill="#D3C8C8"/>
<ellipse cx="267.717" cy="177.194" rx="6.65051" ry="7.28998" fill="#272626"/>
<ellipse cx="261.268" cy="171.008" rx="1.81378" ry="1.98818" fill="#E5E5E5"/>
</svg>
