<svg width="1033" height="551" viewBox="0 0 1033 551" fill="none" xmlns="http://www.w3.org/2000/svg">
<path d="M0 316.151C0 220.977 69.7148 140.163 163.86 126.204L748.972 39.4455C889.119 18.665 1015 127.257 1015 268.936V306.69C1015 439.528 903.676 545.242 771.016 538.38L182.105 507.919C80.0445 502.64 0 418.348 0 316.151V316.151Z" fill="#7AA6BF"/>
<path d="M192.829 257.721H153.067V368H136.84V257.721H97.1631V244.297H192.829V257.721ZM225.794 368H210.076V276.072H225.794V368ZM208.802 251.688C208.802 249.14 209.566 246.987 211.096 245.231C212.682 243.476 215.004 242.598 218.062 242.598C221.121 242.598 223.443 243.476 225.029 245.231C226.615 246.987 227.408 249.14 227.408 251.688C227.408 254.237 226.615 256.361 225.029 258.061C223.443 259.76 221.121 260.609 218.062 260.609C215.004 260.609 212.682 259.76 211.096 258.061C209.566 256.361 208.802 254.237 208.802 251.688ZM287.9 356.87C293.508 356.87 298.407 355.171 302.599 351.772C306.79 348.374 309.112 344.126 309.565 339.028H324.434C324.15 344.296 322.338 349.309 318.996 354.066C315.654 358.824 311.18 362.619 305.572 365.451C300.021 368.283 294.131 369.699 287.9 369.699C275.383 369.699 265.414 365.536 257.994 357.21C250.631 348.827 246.949 337.386 246.949 322.886V320.252C246.949 311.303 248.592 303.345 251.877 296.378C255.162 289.411 259.863 284.002 265.98 280.15C272.154 276.299 279.433 274.373 287.815 274.373C298.124 274.373 306.677 277.46 313.474 283.634C320.327 289.808 323.98 297.822 324.434 307.678H309.565C309.112 301.73 306.847 296.859 302.769 293.064C298.747 289.213 293.763 287.287 287.815 287.287C279.829 287.287 273.627 290.176 269.209 295.953C264.848 301.674 262.667 309.972 262.667 320.847V323.82C262.667 334.412 264.848 342.568 269.209 348.289C273.57 354.01 279.801 356.87 287.9 356.87ZM367.764 325.435L357.908 335.715V368H342.19V237.5H357.908V316.429L366.319 306.318L394.951 276.072H414.067L378.299 314.475L418.23 368H399.794L367.764 325.435ZM466.743 369.699C454.282 369.699 444.144 365.621 436.327 357.465C428.511 349.252 424.603 338.292 424.603 324.585V321.696C424.603 312.577 426.33 304.449 429.785 297.312C433.297 290.119 438.168 284.512 444.398 280.49C450.686 276.412 457.482 274.373 464.789 274.373C476.74 274.373 486.029 278.31 492.656 286.183C499.283 294.056 502.597 305.327 502.597 319.997V326.539H440.32C440.547 335.602 443.181 342.937 448.222 348.544C453.319 354.095 459.776 356.87 467.593 356.87C473.144 356.87 477.845 355.737 481.696 353.472C485.548 351.206 488.918 348.204 491.807 344.466L501.407 351.942C493.704 363.78 482.149 369.699 466.743 369.699ZM464.789 287.287C458.445 287.287 453.121 289.609 448.816 294.254C444.512 298.842 441.85 305.299 440.83 313.625H486.879V312.436C486.426 304.449 484.273 298.275 480.422 293.914C476.57 289.496 471.359 287.287 464.789 287.287ZM542.188 253.812V276.072H559.351V288.222H542.188V345.23C542.188 348.912 542.953 351.688 544.482 353.557C546.012 355.369 548.617 356.275 552.299 356.275C554.111 356.275 556.604 355.936 559.775 355.256V368C555.641 369.133 551.619 369.699 547.711 369.699C540.688 369.699 535.392 367.575 531.823 363.327C528.255 359.079 526.471 353.047 526.471 345.23V288.222H509.733V276.072H526.471V253.812H542.188ZM675.322 368H658.925V310.821H596.563V368H580.251V244.297H596.563V297.482H658.925V244.297H675.322V368ZM758.584 358.909C752.467 366.103 743.489 369.699 731.651 369.699C721.853 369.699 714.376 366.867 709.222 361.203C704.124 355.482 701.547 347.043 701.49 335.885V276.072H717.208V335.46C717.208 349.394 722.872 356.36 734.2 356.36C746.208 356.36 754.194 351.886 758.159 342.937V276.072H773.877V368H758.924L758.584 358.909ZM875.66 323.056C875.66 337.103 872.432 348.402 865.975 356.955C859.518 365.451 850.852 369.699 839.977 369.699C828.365 369.699 819.388 365.593 813.044 357.38L812.279 368H797.836V237.5H813.554V286.183C819.897 278.31 828.648 274.373 839.807 274.373C850.965 274.373 859.716 278.593 866.06 287.032C872.46 295.472 875.66 307.026 875.66 321.696V323.056ZM859.942 321.271C859.942 310.566 857.875 302.297 853.74 296.463C849.605 290.629 843.658 287.712 835.898 287.712C825.533 287.712 818.085 292.526 813.554 302.155V341.917C818.368 351.546 825.873 356.36 836.068 356.36C843.602 356.36 849.464 353.443 853.655 347.609C857.847 341.775 859.942 332.996 859.942 321.271Z" fill="#F5F4F4"/>
<ellipse cx="220" cy="235.5" rx="26" ry="28.5" fill="#5E8EAA"/>
<path fill-rule="evenodd" clip-rule="evenodd" d="M200.102 234.918C204.493 228.06 211.762 223.577 219.987 223.577C228.211 223.577 235.48 228.06 239.871 234.918C235.48 241.777 228.211 246.26 219.987 246.26C211.762 246.26 204.493 241.777 200.102 234.918Z" fill="#E5E5E5"/>
<path d="M221.626 223.601C227.338 223.776 231.841 228.928 231.684 235.109C231.527 241.29 226.77 246.16 221.057 245.986C215.345 245.811 210.842 240.659 210.999 234.478C211.156 228.297 215.914 223.427 221.626 223.601Z" fill="#D3C8C8"/>
<ellipse cx="221.459" cy="234.773" rx="4.37755" ry="4.79847" fill="#272626"/>
<ellipse cx="217.214" cy="230.702" rx="1.19388" ry="1.30867" fill="#E5E5E5"/>
</svg>
