<svg width="192" height="192" viewBox="0 0 192 192" fill="none" xmlns="http://www.w3.org/2000/svg">
<circle cx="96" cy="96" r="96" fill="#5E8EAA"/>
<path fill-rule="evenodd" clip-rule="evenodd" d="M22.5306 94.0408C38.7434 70.9382 65.5834 55.8367 95.9506 55.8367C126.318 55.8367 153.158 70.9382 169.371 94.0408C153.158 117.144 126.318 132.245 95.9506 132.245C65.5834 132.245 38.7434 117.144 22.5306 94.0408Z" fill="#E5E5E5"/>
<path d="M102.003 55.9204C123.094 56.5076 139.722 73.8623 139.142 94.6833C138.563 115.504 120.995 131.907 99.9036 131.32C78.8122 130.733 62.1842 113.378 62.7639 92.5568C63.3436 71.7359 80.9114 55.3332 102.003 55.9204Z" fill="#D3C8C8"/>
<ellipse cx="101.388" cy="93.551" rx="16.1633" ry="16.1633" fill="#272626"/>
<circle cx="85.7143" cy="79.8367" r="4.40816" fill="#E5E5E5"/>
</svg>
