<svg width="48" height="48" viewBox="0 0 48 48" fill="none" xmlns="http://www.w3.org/2000/svg">
<circle cx="24" cy="24" r="24" fill="#5E8EAA"/>
<path fill-rule="evenodd" clip-rule="evenodd" d="M5.63266 23.5102C9.68584 17.7345 16.3959 13.9592 23.9876 13.9592C31.5794 13.9592 38.2895 17.7345 42.3426 23.5102C38.2895 29.2859 31.5794 33.0612 23.9876 33.0612C16.3959 33.0612 9.68584 29.2859 5.63266 23.5102Z" fill="#E5E5E5"/>
<path d="M25.5007 13.9801C30.7735 14.1269 34.9306 18.4656 34.7856 23.6708C34.6407 28.8761 30.2488 32.9767 24.9759 32.8299C19.7031 32.6831 15.5461 28.3444 15.691 23.1392C15.8359 17.934 20.2279 13.8333 25.5007 13.9801Z" fill="#D3C8C8"/>
<ellipse cx="25.3469" cy="23.3878" rx="4.04082" ry="4.04082" fill="#272626"/>
<circle cx="21.4286" cy="19.9592" r="1.10204" fill="#E5E5E5"/>
</svg>
